<svg width="32" height="32" viewBox="0 0 32 32" fill="none" xmlns="http://www.w3.org/2000/svg">
  <path d="M13.7065 7.5H8.70753C7.98238 7.5 7.39453 8.08785 7.39453 8.813V13.812C7.39453 14.5371 7.98238 15.125 8.70753 15.125H13.7065C14.4317 15.125 15.0195 14.5371 15.0195 13.812V8.813C15.0195 8.08785 14.4317 7.5 13.7065 7.5Z" fill="#FAFAFA"/>
  <path d="M23.188 15.6309H18.188C17.7074 15.6301 17.2468 15.4388 16.9069 15.099C16.5671 14.7591 16.3758 14.2984 16.375 13.8179V8.81786C16.3758 8.33735 16.5671 7.87677 16.907 7.53709C17.2468 7.19742 17.7075 7.00639 18.188 7.00586H23.188C23.6684 7.00639 24.129 7.19745 24.4687 7.53716C24.8084 7.87686 24.9995 8.33745 25 8.81786V13.8179C24.9995 14.2984 24.8084 14.759 24.4688 15.0989C24.1291 15.4388 23.6685 15.6301 23.188 15.6309ZM18.188 8.00586C17.9725 8.00586 17.7659 8.09137 17.6135 8.24362C17.461 8.39587 17.3753 8.60241 17.375 8.81786V13.8179C17.3753 14.0334 17.461 14.24 17.6134 14.3924C17.7658 14.5449 17.9724 14.6306 18.188 14.6309H23.188C23.4034 14.6306 23.61 14.5448 23.7623 14.3924C23.9145 14.2399 24 14.0333 24 13.8179V8.81786C23.9997 8.60258 23.9141 8.39619 23.7619 8.24397C23.6097 8.09175 23.4033 8.00612 23.188 8.00586H18.188Z" fill="#FAFAFA"/>
  <path d="M23.188 25H18.188C17.7074 24.9992 17.2468 24.8079 16.9069 24.4681C16.5671 24.1283 16.3758 23.6676 16.375 23.187V18.187C16.3758 17.7065 16.5671 17.2459 16.907 16.9062C17.2468 16.5666 17.7075 16.3755 18.188 16.375H23.188C23.6684 16.3755 24.129 16.5666 24.4687 16.9063C24.8084 17.246 24.9995 17.7066 25 18.187V23.187C24.9995 23.6675 24.8084 24.1282 24.4688 24.468C24.1291 24.8079 23.6685 24.9992 23.188 25ZM18.188 17.375C17.9725 17.375 17.7659 17.4605 17.6135 17.6128C17.461 17.765 17.3753 17.9715 17.375 18.187V23.187C17.3753 23.4025 17.461 23.6092 17.6134 23.7616C17.7658 23.914 17.9724 23.9997 18.188 24H23.188C23.4034 23.9997 23.61 23.914 23.7623 23.7615C23.9145 23.6091 24 23.4024 24 23.187V18.187C23.9997 17.9717 23.9141 17.7653 23.7619 17.6131C23.6097 17.4609 23.4033 17.3753 23.188 17.375H18.188Z" fill="#FAFAFA"/>
  <path d="M13.812 25H8.81195C8.33145 24.9992 7.87092 24.8079 7.53125 24.468C7.19158 24.1282 7.00053 23.6675 7 23.187V18.187C7.00053 17.7066 7.19161 17.246 7.53131 16.9063C7.87101 16.5666 8.33154 16.3755 8.81195 16.375H13.812C14.2925 16.3755 14.7532 16.5666 15.093 16.9062C15.4329 17.2459 15.6242 17.7065 15.625 18.187V23.187C15.6242 23.6676 15.4329 24.1283 15.0931 24.4681C14.7532 24.8079 14.2925 24.9992 13.812 25ZM8.81195 17.375C8.59668 17.3753 8.39032 17.4609 8.2381 17.6131C8.08588 17.7653 8.00026 17.9717 8 18.187V23.187C8 23.4024 8.08548 23.6091 8.23773 23.7615C8.38998 23.914 8.5965 23.9997 8.81195 24H13.812C14.0275 23.9997 14.2341 23.914 14.3865 23.7616C14.5389 23.6092 14.6247 23.4025 14.625 23.187V18.187C14.6247 17.9715 14.5389 17.765 14.3865 17.6128C14.234 17.4605 14.0274 17.375 13.812 17.375H8.81195Z" fill="#FAFAFA"/>
</svg>
