<svg width="32" height="32" viewBox="0 0 32 32" fill="none" xmlns="http://www.w3.org/2000/svg">
<path d="M27.1867 17.008C26.6552 16.3896 25.9794 15.9118 25.2191 15.6169C24.4588 15.322 23.6376 15.2191 22.828 15.3174C22.0185 15.4157 21.2458 15.7121 20.5782 16.1804C19.9106 16.6486 19.3687 17.2743 19.0007 18.002C18.6326 18.7296 18.4497 19.5368 18.4681 20.3521C18.4865 21.1674 18.7056 21.9655 19.1061 22.6758C19.5066 23.3862 20.0761 23.9868 20.7641 24.4244C21.4522 24.8621 22.2376 25.1234 23.0507 25.1851C23.178 25.1951 23.3057 25.2 23.4337 25.2C24.3821 25.1987 25.3103 24.9253 26.1081 24.4125C26.9059 23.8996 27.5398 23.1687 27.9349 22.3065C28.3299 21.4442 28.4694 20.4868 28.3368 19.5477C28.2042 18.6086 27.805 17.7272 27.1867 17.008ZM25.9717 23.2031C25.4941 23.6135 24.9243 23.9025 24.311 24.0453C23.6976 24.1881 23.0588 24.1805 22.449 24.0231C21.8391 23.8658 21.2764 23.5634 20.8087 23.1416C20.341 22.7199 19.9822 22.1913 19.7628 21.601C19.5434 21.0107 19.47 20.376 19.5488 19.7512C19.6276 19.1264 19.8562 18.5299 20.2153 18.0125C20.5744 17.4951 21.0532 17.0722 21.6109 16.7797C22.1687 16.4873 22.7889 16.3341 23.4187 16.333C23.5187 16.333 23.6187 16.333 23.7187 16.344C24.4892 16.4023 25.2252 16.6877 25.8335 17.1642C26.4419 17.6408 26.8952 18.287 27.1363 19.0212C27.3773 19.7554 27.3953 20.5445 27.1878 21.2889C26.9803 22.0333 26.5567 22.6994 25.9707 23.2031H25.9717Z" fill="#FAFAFA"/>
<path d="M18.5471 22.86H10.2081C9.68566 22.8592 9.18492 22.6513 8.81561 22.2818C8.44631 21.9123 8.23857 21.4114 8.23804 20.889V12.863H23.7161V14.713C24.1352 14.7348 24.5504 14.8039 24.954 14.919V11.21C24.9532 10.3595 24.6151 9.54395 24.0136 8.9425C23.4122 8.34106 22.5967 8.00281 21.7461 8.00201H21.0541V6.651C21.0541 6.47835 20.9855 6.31276 20.8634 6.19067C20.7413 6.06859 20.5757 6 20.4031 6H20.0031C19.8306 6.00026 19.6653 6.06898 19.5434 6.19104C19.4215 6.3131 19.3531 6.47852 19.3531 6.651V8.00201H16.826V6.651C16.826 6.47852 16.7576 6.3131 16.6357 6.19104C16.5139 6.06898 16.3486 6.00026 16.1761 6H15.7761C15.6036 6.00026 15.4383 6.06898 15.3164 6.19104C15.1945 6.3131 15.126 6.47852 15.126 6.651V8.00201H12.5701V6.651C12.5701 6.47835 12.5015 6.31276 12.3794 6.19067C12.2573 6.06859 12.0917 6 11.9191 6H11.519C11.3464 6 11.1808 6.06859 11.0587 6.19067C10.9366 6.31276 10.868 6.47835 10.868 6.651V8.00201H10.204C9.35347 8.00281 8.53797 8.34106 7.93652 8.9425C7.33508 9.54395 6.99689 10.3595 6.99609 11.21V20.89C6.99689 21.7407 7.33505 22.5563 7.93646 23.1579C8.53788 23.7595 9.35338 24.0979 10.204 24.099H19.4561C19.3761 24.017 19.2951 23.938 19.2201 23.851C18.9607 23.5459 18.7351 23.2136 18.5471 22.86ZM8.23804 11.209C8.23883 10.6868 8.44664 10.1862 8.81592 9.81689C9.18519 9.44762 9.68584 9.23981 10.2081 9.23901H10.8721V9.599C10.8721 9.68444 10.8889 9.76907 10.9216 9.84799C10.9544 9.92692 11.0023 9.99862 11.0628 10.059C11.1233 10.1194 11.195 10.1672 11.274 10.1998C11.353 10.2324 11.4376 10.2492 11.5231 10.249H11.923C12.0955 10.249 12.261 10.1806 12.3831 10.0587C12.5051 9.93682 12.5738 9.77148 12.574 9.599V9.23901H15.139V9.599C15.139 9.77139 15.2076 9.93673 15.3295 10.0586C15.4514 10.1805 15.6167 10.249 15.7891 10.249H16.1891C16.3615 10.249 16.5268 10.1805 16.6487 10.0586C16.7706 9.93673 16.8391 9.77139 16.8391 9.599V9.23901H19.3661V9.599C19.3661 9.77139 19.4346 9.93673 19.5565 10.0586C19.6784 10.1805 19.8437 10.249 20.0161 10.249H20.4161C20.5015 10.2492 20.5861 10.2324 20.6651 10.1998C20.7441 10.1672 20.8159 10.1194 20.8763 10.059C20.9368 9.99862 20.9848 9.92692 21.0175 9.84799C21.0502 9.76907 21.0671 9.68444 21.0671 9.599V9.23901H21.759C22.2813 9.23981 22.7819 9.44762 23.1512 9.81689C23.5205 10.1862 23.7283 10.6868 23.7291 11.209V11.624H8.23804V11.209Z" fill="#FAFAFA"/>
<path d="M26.1592 20.2512H23.7343V17.7611C23.7298 17.6821 23.6952 17.6078 23.6376 17.5534C23.5801 17.499 23.5039 17.4688 23.4247 17.4688C23.3456 17.4688 23.2694 17.499 23.2119 17.5534C23.1543 17.6078 23.1197 17.6821 23.1152 17.7611V20.5612C23.1152 20.6434 23.1479 20.7222 23.2061 20.7803C23.2642 20.8385 23.343 20.8712 23.4252 20.8712H26.1602C26.2023 20.8736 26.2445 20.8673 26.2842 20.8528C26.3238 20.8384 26.3601 20.816 26.3907 20.787C26.4214 20.758 26.4458 20.7231 26.4625 20.6843C26.4792 20.6456 26.4879 20.6038 26.4879 20.5616C26.4879 20.5195 26.4792 20.4777 26.4625 20.439C26.4458 20.4002 26.4214 20.3653 26.3907 20.3363C26.3601 20.3073 26.3238 20.2849 26.2842 20.2704C26.2445 20.256 26.2023 20.2497 26.1602 20.2521L26.1592 20.2512Z" fill="#FAFAFA"/>
</svg>
