<svg width="32" height="32" viewBox="0 0 32 32" fill="none" xmlns="http://www.w3.org/2000/svg">
  <path d="M22.8725 23.7414H8.81552C8.63843 23.7433 8.46416 23.6967 8.31168 23.6066C8.15919 23.5165 8.03426 23.3864 7.95047 23.2304C7.86858 23.0776 7.83258 22.9044 7.84677 22.7316C7.86096 22.5588 7.92476 22.3938 8.03049 22.2564L9.46848 20.3564V13.2564C9.46848 13.2204 9.46848 13.1014 9.46848 13.1014L9.5145 12.5214C9.74519 10.9532 10.5504 9.52666 11.7738 8.5188C12.9973 7.51095 14.5515 6.9937 16.1349 7.06748C17.7183 7.14126 19.2177 7.8008 20.3421 8.91805C21.4665 10.0353 22.1356 11.5305 22.2195 13.1134V20.3554L23.6585 22.2554C23.7638 22.3928 23.8274 22.5577 23.8414 22.7303C23.8554 22.9028 23.8193 23.0758 23.7375 23.2284C23.6539 23.3847 23.5291 23.5152 23.3766 23.6056C23.2241 23.696 23.0498 23.743 22.8725 23.7414ZM9.37253 22.5324H22.3135L20.9635 20.7464V13.1464C20.9007 11.8316 20.3345 10.5913 19.3821 9.68268C18.4296 8.77404 17.1641 8.2667 15.8478 8.2658C14.5315 8.2649 13.2653 8.77052 12.3117 9.67786C11.358 10.5852 10.7901 11.8247 10.7255 13.1394V13.2554V20.7474L9.37253 22.5324Z" fill="#FAFAFA"/>
  <path d="M19.3331 20.7996H12.0551C11.9763 20.7996 11.8982 20.7841 11.8254 20.754C11.7526 20.7238 11.6865 20.6796 11.6308 20.6239C11.5751 20.5682 11.5309 20.502 11.5007 20.4292C11.4706 20.3564 11.4551 20.2784 11.4551 20.1996C11.4551 20.1208 11.4706 20.0428 11.5007 19.97C11.5309 19.8972 11.5751 19.8311 11.6308 19.7754C11.6865 19.7196 11.7526 19.6754 11.8254 19.6453C11.8982 19.6151 11.9763 19.5996 12.0551 19.5996H19.3331C19.4922 19.5996 19.6448 19.6628 19.7573 19.7754C19.8698 19.8879 19.9331 20.0405 19.9331 20.1996C19.9331 20.3587 19.8698 20.5114 19.7573 20.6239C19.6448 20.7364 19.4922 20.7996 19.3331 20.7996Z" fill="#FAFAFA"/>
  <path d="M17.2597 23.5C17.2597 23.7024 17.2198 23.9028 17.1424 24.0897C17.065 24.2767 16.9514 24.4466 16.8083 24.5897C16.6653 24.7328 16.4954 24.8463 16.3085 24.9237C16.1215 25.0011 15.9211 25.041 15.7188 25.041C15.5164 25.041 15.316 25.0011 15.129 24.9237C14.9421 24.8463 14.7722 24.7328 14.6291 24.5897C14.486 24.4466 14.3725 24.2767 14.295 24.0897C14.2176 23.9028 14.1777 23.7024 14.1777 23.5" fill="#FAFAFA"/>
  <path d="M14.5566 7.33151C14.5566 6.98925 14.6926 6.66101 14.9346 6.41899C15.1766 6.17698 15.5048 6.04102 15.8471 6.04102C16.1894 6.04102 16.5176 6.17698 16.7596 6.41899C17.0017 6.66101 17.1376 6.98925 17.1376 7.33151" fill="#FAFAFA"/>
</svg>
