<svg width="32" height="32" viewBox="0 0 32 32" fill="none" xmlns="http://www.w3.org/2000/svg">
  <path d="M20.427 13.9382V12.7052C20.4633 12.1014 20.3757 11.4966 20.1697 10.928C19.9636 10.3593 19.6434 9.83882 19.2288 9.39848C18.8141 8.95815 18.3138 8.60727 17.7585 8.36745C17.2033 8.12762 16.6048 8.00391 16 8.00391C15.3952 8.00391 14.7967 8.12762 14.2415 8.36745C13.6862 8.60727 13.1858 8.95815 12.7712 9.39848C12.3565 9.83882 12.0364 10.3593 11.8303 10.928C11.6243 11.4966 11.5367 12.1014 11.573 12.7052V13.9382C11.1572 13.961 10.7651 14.1387 10.4739 14.4364C10.1827 14.734 10.0136 15.13 10 15.5462V21.3002C10.0157 21.7452 10.207 22.1659 10.5322 22.4701C10.8574 22.7743 11.2899 22.9372 11.735 22.9232H20.265C20.7101 22.9372 21.1426 22.7743 21.4678 22.4701C21.793 22.1659 21.9843 21.7452 22 21.3002V15.5462C21.9864 15.13 21.8173 14.734 21.5261 14.4364C21.2349 14.1387 20.8428 13.961 20.427 13.9382ZM16 9.19817C16.8921 9.23792 17.7321 9.62906 18.3367 10.2861C18.9414 10.9432 19.2614 11.8129 19.227 12.7052V13.9232H12.772V12.7052C12.7378 11.8128 13.0581 10.9431 13.6629 10.2861C14.2677 9.62903 15.1079 9.23792 16 9.19817ZM20.91 21.2982C20.9032 21.463 20.8317 21.6185 20.7109 21.7308C20.5901 21.8432 20.4299 21.9033 20.265 21.8982H11.735C11.5702 21.903 11.4101 21.8428 11.2894 21.7305C11.1686 21.6182 11.097 21.4629 11.09 21.2982V15.5462C11.0967 15.3814 11.1683 15.2259 11.2891 15.1135C11.4098 15.0012 11.5701 14.941 11.735 14.9462H20.265C20.4299 14.941 20.5901 15.0012 20.7109 15.1135C20.8317 15.2259 20.9032 15.3814 20.91 15.5462V21.2982Z" fill="#FAFAFA"/>
  <path d="M15.9995 16.7246C15.6963 16.7251 15.4056 16.8458 15.1912 17.0603C14.9767 17.2747 14.856 17.5654 14.8555 17.8686V18.9766C14.8555 19.28 14.976 19.571 15.1906 19.7855C15.4051 20.0001 15.6961 20.1206 15.9995 20.1206C16.3029 20.1206 16.5939 20.0001 16.8084 19.7855C17.023 19.571 17.1435 19.28 17.1435 18.9766V17.8656C17.1419 17.563 17.0208 17.2732 16.8065 17.0595C16.5922 16.8458 16.3022 16.7254 15.9995 16.7246Z" fill="#FAFAFA"/>
</svg>
