<svg width="32" height="32" viewBox="0 0 32 32" fill="none" xmlns="http://www.w3.org/2000/svg">
  <path d="M25.9391 12.6821C25.7797 12.6823 25.6245 12.6315 25.4961 12.5371C22.8454 10.5963 19.6533 9.53455 16.3681 9.50101C13.083 9.46747 9.86991 10.4638 7.1801 12.3501C7.01733 12.4573 6.81923 12.4969 6.62776 12.4606C6.43628 12.4243 6.26647 12.3148 6.15429 12.1555C6.04211 11.9961 5.99636 11.7993 6.02676 11.6068C6.05715 11.4143 6.16128 11.2411 6.3171 11.1241C9.26341 9.05595 12.7837 7.96303 16.3832 7.9989C19.9828 8.03478 23.4806 9.19765 26.3851 11.3241C26.5124 11.4178 26.6069 11.5494 26.655 11.7C26.703 11.8506 26.7023 12.0126 26.6528 12.1628C26.6034 12.3129 26.5077 12.4436 26.3795 12.5362C26.2514 12.6287 26.0972 12.6784 25.9391 12.6781V12.6821Z" fill="#FAFAFA"/>
  <path d="M9.13675 15.5981C8.9789 15.5981 8.82508 15.5483 8.69719 15.4558C8.56929 15.3633 8.47384 15.2328 8.42442 15.0829C8.375 14.933 8.37415 14.7713 8.42196 14.6209C8.46978 14.4705 8.56384 14.3389 8.69075 14.2451C10.9113 12.6098 13.5913 11.717 16.3489 11.6938C19.1065 11.6707 21.8011 12.5183 24.0487 14.1161C24.2107 14.2317 24.32 14.407 24.3527 14.6032C24.3855 14.7995 24.3389 15.0007 24.2232 15.1626C24.1076 15.3245 23.9324 15.4339 23.7361 15.4666C23.5399 15.4993 23.3387 15.4527 23.1767 15.3371C21.1868 13.9234 18.8015 13.1735 16.3606 13.1942C13.9197 13.2148 11.5475 14.005 9.58175 15.4521C9.45274 15.5469 9.29684 15.5981 9.13675 15.5981Z" fill="#FAFAFA"/>
  <path d="M21.2234 18.0747C21.0678 18.0747 20.9161 18.0261 20.7894 17.9357C19.5278 17.0611 18.0309 16.5891 16.4958 16.5818C14.9606 16.5745 13.4593 17.0322 12.1894 17.8948C12.0263 18.0087 11.8246 18.0531 11.6287 18.0183C11.4329 17.9835 11.2588 17.8723 11.1449 17.7092C11.031 17.5461 10.9865 17.3445 11.0213 17.1486C11.0561 16.9527 11.1673 16.7787 11.3304 16.6647C12.8483 15.6083 14.6553 15.046 16.5047 15.0548C18.354 15.0636 20.1556 15.6429 21.6634 16.7138C21.7931 16.8061 21.89 16.9372 21.9402 17.0883C21.9904 17.2394 21.9912 17.4025 21.9425 17.554C21.8939 17.7056 21.7983 17.8377 21.6695 17.9313C21.5408 18.025 21.3856 18.0752 21.2264 18.0747H21.2234Z" fill="#FAFAFA"/>
  <path d="M16.5703 23.3887C17.6749 23.3887 18.5703 22.4932 18.5703 21.3887C18.5703 20.2841 17.6749 19.3887 16.5703 19.3887C15.4657 19.3887 14.5703 20.2841 14.5703 21.3887C14.5703 22.4932 15.4657 23.3887 16.5703 23.3887Z" fill="#FAFAFA"/>
</svg>
