<svg width="32" height="32" viewBox="0 0 32 32" fill="none" xmlns="http://www.w3.org/2000/svg">
<path d="M15 3V8H17V3H15ZM7.5 6.094L6.094 7.5L9.625 11.063L11.063 9.625L7.5 6.094ZM24.5 6.094L20.937 9.625L22.375 11.063L25.906 7.5L24.5 6.094ZM16 9C12.145 9 9 12.145 9 16C9 19.855 12.145 23 16 23C19.855 23 23 19.855 23 16C23 12.145 19.855 9 16 9ZM16 11C18.773 11 21 13.227 21 16C21 18.773 18.773 21 16 21C13.227 21 11 18.773 11 16C11 13.227 13.227 11 16 11ZM3 15V17H8V15H3ZM24 15V17H29V15H24ZM9.625 20.938L6.094 24.5L7.5 25.906L11.063 22.375L9.625 20.938ZM22.375 20.938L20.937 22.375L24.5 25.906L25.906 24.5L22.375 20.938ZM15 24V29H17V24H15Z" fill="#FFA166"/>
</svg>
