<svg width="32" height="32" viewBox="0 0 32 32" fill="none" xmlns="http://www.w3.org/2000/svg">
  <path d="M17.1368 25.9993C17.0156 25.9992 16.8953 25.9776 16.7818 25.9353C16.6184 25.88 16.476 25.776 16.3737 25.6372C16.2714 25.4984 16.2142 25.3316 16.2098 25.1593V17.7183L10.8698 22.5593C10.7207 22.6897 10.5293 22.7615 10.3313 22.7615C10.1332 22.7615 9.94186 22.6897 9.79277 22.5593C9.72254 22.4987 9.66619 22.4237 9.62756 22.3394C9.58894 22.2551 9.56895 22.1635 9.56895 22.0708C9.56895 21.978 9.58894 21.8864 9.62756 21.8021C9.66619 21.7178 9.72254 21.6428 9.79277 21.5823L16.0088 15.9473L9.22577 9.79726C9.15554 9.73671 9.09919 9.66173 9.06056 9.57743C9.02194 9.49313 9.00195 9.40149 9.00195 9.30876C9.00195 9.21603 9.02194 9.12439 9.06056 9.04009C9.09919 8.95579 9.15554 8.88081 9.22577 8.82026C9.37496 8.69007 9.56626 8.61833 9.76427 8.61833C9.96227 8.61833 10.1536 8.69007 10.3028 8.82026L16.2088 14.1753V6.83926C16.2132 6.66691 16.2704 6.50008 16.3727 6.3613C16.475 6.22252 16.6175 6.11849 16.7808 6.06326C16.9496 5.99883 17.1328 5.98173 17.3106 6.0138C17.4884 6.04588 17.6541 6.12591 17.7898 6.24526L22.6728 10.6753C22.7575 10.7492 22.8253 10.8405 22.8718 10.9428C22.9183 11.0452 22.9424 11.1563 22.9424 11.2688C22.9424 11.3812 22.9183 11.4923 22.8718 11.5947C22.8253 11.6971 22.7575 11.7883 22.6728 11.8623L18.1628 15.9513L22.7308 20.0913C22.8156 20.1651 22.8836 20.2563 22.9302 20.3587C22.9768 20.4611 23.0009 20.5723 23.0009 20.6848C23.0009 20.7972 22.9768 20.9084 22.9302 21.0108C22.8836 21.1132 22.8156 21.2044 22.7308 21.2783L17.7908 25.7563C17.6103 25.9152 17.3773 26.0018 17.1368 25.9993ZM17.7368 17.5113V23.8513L21.2368 20.6813L17.7368 17.5113ZM17.7368 8.14726V14.3833L21.1768 11.2653L17.7368 8.14726Z" fill="#FAFAFA"/>
</svg>
