<svg width="32" height="32" viewBox="0 0 32 32" fill="none" xmlns="http://www.w3.org/2000/svg">
  <path d="M16.5527 20.4454C19.2451 20.4454 21.4277 18.2623 21.4277 15.5694C21.4277 12.8764 19.2451 10.6934 16.5527 10.6934C13.8603 10.6934 11.6777 12.8764 11.6777 15.5694C11.6777 18.2623 13.8603 20.4454 16.5527 20.4454Z" stroke="#FAFAFA" stroke-width="1.15"/>
  <path d="M24.885 14.8481C24.6713 14.8481 24.498 15.0211 24.498 15.2346C24.498 15.4481 24.6713 15.6211 24.885 15.6211H25.282C25.4958 15.6211 25.669 15.4481 25.669 15.2346C25.669 15.0211 25.4958 14.8481 25.282 14.8481H24.885Z" fill="#FAFAFA"/>
  <path d="M24.885 14.8461C24.6713 14.8461 24.498 15.0192 24.498 15.2326C24.498 15.4461 24.6713 15.6191 24.885 15.6191H25.282C25.4958 15.6191 25.669 15.4461 25.669 15.2326C25.669 15.0192 25.4958 14.8461 25.282 14.8461H24.885Z" fill="#FAFAFA"/>
  <path d="M7.44169 14.85C7.22795 14.85 7.05469 15.0231 7.05469 15.2365C7.05469 15.45 7.22795 15.623 7.44169 15.623H7.83869C8.05242 15.623 8.22569 15.45 8.22569 15.2365C8.22569 15.0231 8.05242 14.85 7.83869 14.85H7.44169Z" fill="#FAFAFA"/>
  <path d="M7.44169 14.8481C7.22795 14.8481 7.05469 15.0211 7.05469 15.2346C7.05469 15.4481 7.22795 15.6211 7.44169 15.6211H7.83869C8.05242 15.6211 8.22569 15.4481 8.22569 15.2346C8.22569 15.0211 8.05242 14.8481 7.83869 14.8481H7.44169Z" fill="#FAFAFA"/>
  <path d="M16.7535 6.44559C16.7535 6.23186 16.5804 6.05859 16.367 6.05859C16.1535 6.05859 15.9805 6.23186 15.9805 6.44559V6.84259C15.9805 7.05633 16.1535 7.22959 16.367 7.22959C16.5804 7.22959 16.7535 7.05633 16.7535 6.84259V6.44559Z" fill="#FAFAFA"/>
  <path d="M16.7554 6.44559C16.7554 6.23186 16.5824 6.05859 16.3689 6.05859C16.1555 6.05859 15.9824 6.23186 15.9824 6.44559V6.84259C15.9824 7.05633 16.1555 7.22959 16.3689 7.22959C16.5824 7.22959 16.7554 7.05633 16.7554 6.84259V6.44559Z" fill="#FAFAFA"/>
  <path d="M16.7535 23.9163C16.7535 23.7026 16.5804 23.5293 16.367 23.5293C16.1535 23.5293 15.9805 23.7026 15.9805 23.9163V24.3133C15.9805 24.527 16.1535 24.7003 16.367 24.7003C16.5804 24.7003 16.7535 24.527 16.7535 24.3133V23.9163Z" fill="#FAFAFA"/>
  <path d="M16.7554 23.9163C16.7554 23.7026 16.5824 23.5293 16.3689 23.5293C16.1555 23.5293 15.9824 23.7026 15.9824 23.9163V24.3133C15.9824 24.527 16.1555 24.7003 16.3689 24.7003C16.5824 24.7003 16.7554 24.527 16.7554 24.3133V23.9163Z" fill="#FAFAFA"/>
  <path d="M22.4541 8.85371C22.5952 8.69316 22.5796 8.44879 22.4192 8.30788C22.2589 8.16696 22.0145 8.18288 21.8734 8.34343L21.6114 8.64164C21.4703 8.80218 21.4859 9.04656 21.6462 9.18747C21.8066 9.32838 22.0509 9.31246 22.192 9.15192L22.4541 8.85371Z" fill="#FAFAFA"/>
  <path d="M22.456 8.85371C22.5971 8.69316 22.5815 8.44878 22.4212 8.30787C22.2608 8.16696 22.0165 8.18288 21.8754 8.34343L21.6133 8.64164C21.4722 8.80219 21.4878 9.04657 21.6482 9.18748C21.8085 9.32839 22.0529 9.31247 22.194 9.15192L22.456 8.85371Z" fill="#FAFAFA"/>
  <path d="M10.9697 22.0744C11.1108 21.9139 11.0952 21.6695 10.9349 21.5286C10.7745 21.3877 10.5302 21.4036 10.3891 21.5641L10.127 21.8623C9.9859 22.0229 10.0015 22.2673 10.1618 22.4082C10.3222 22.5491 10.5665 22.5332 10.7076 22.3726L10.9697 22.0744Z" fill="#FAFAFA"/>
  <path d="M10.9717 22.0764C11.1128 21.9158 11.0971 21.6714 10.9368 21.5305C10.7765 21.3896 10.5321 21.4055 10.391 21.5661L10.129 21.8643C9.98786 22.0248 10.0035 22.2692 10.1638 22.4101C10.3241 22.551 10.5685 22.5351 10.7096 22.3746L10.9717 22.0764Z" fill="#FAFAFA"/>
  <path d="M9.44316 10.2119C9.60371 10.353 9.84809 10.3374 9.989 10.177C10.1299 10.0167 10.114 9.77234 9.95345 9.63125L9.65524 9.36918C9.49469 9.22808 9.25031 9.24368 9.1094 9.40402C8.96849 9.56436 8.98441 9.80872 9.14496 9.94981L9.44316 10.2119Z" fill="#FAFAFA"/>
  <path d="M9.44122 10.2139C9.60176 10.3549 9.84614 10.3393 9.98705 10.179C10.128 10.0187 10.112 9.7743 9.95149 9.63321L9.65328 9.37114C9.49273 9.23005 9.24835 9.24565 9.10744 9.406C8.96653 9.56634 8.98246 9.81069 9.14301 9.95179L9.44122 10.2139Z" fill="#FAFAFA"/>
  <path d="M23.1072 21.1494C23.2678 21.2905 23.5122 21.2749 23.6531 21.1145C23.794 20.9542 23.7781 20.7098 23.6175 20.5687L23.3193 20.3067C23.1588 20.1656 22.9144 20.1812 22.7735 20.3415C22.6326 20.5019 22.6485 20.7462 22.809 20.8873L23.1072 21.1494Z" fill="#FAFAFA"/>
  <path d="M23.1053 21.1514C23.2658 21.2924 23.5102 21.2768 23.6511 21.1165C23.792 20.9562 23.7761 20.7118 23.6156 20.5707L23.3173 20.3086C23.1568 20.1675 22.9124 20.1832 22.7715 20.3435C22.6306 20.5038 22.6465 20.7482 22.8071 20.8893L23.1053 21.1514Z" fill="#FAFAFA"/>
  <path d="M24.8442 14.7589C24.5807 14.7589 24.3672 14.9725 24.3672 15.2359C24.3672 15.4993 24.5807 15.7129 24.8442 15.7129H25.3352C25.5986 15.7129 25.8122 15.4993 25.8122 15.2359C25.8122 14.9725 25.5986 14.7589 25.3352 14.7589H24.8442Z" fill="#FAFAFA"/>
  <path d="M24.885 14.8481C24.6713 14.8481 24.498 15.0211 24.498 15.2346C24.498 15.4481 24.6713 15.6211 24.885 15.6211H25.282C25.4958 15.6211 25.669 15.4481 25.669 15.2346C25.669 15.0211 25.4958 14.8481 25.282 14.8481H24.885Z" fill="#FAFAFA"/>
  <path d="M24.0371 15.2337V15.2347C24.0371 15.6185 24.3483 15.9297 24.7321 15.9297H25.4481C25.8319 15.9297 26.1431 15.6185 26.1431 15.2347V15.2337C26.1431 14.8498 25.8319 14.5387 25.4481 14.5387H24.7321C24.3483 14.5387 24.0371 14.8498 24.0371 15.2337Z" fill="#FAFAFA"/>
  <path d="M7.38716 14.7608C7.12372 14.7608 6.91016 14.9744 6.91016 15.2378C6.91016 15.5013 7.12372 15.7148 7.38716 15.7148H7.87816C8.1416 15.7148 8.35516 15.5013 8.35516 15.2378C8.35516 14.9744 8.1416 14.7608 7.87816 14.7608H7.38716Z" fill="#FAFAFA"/>
  <path d="M7.44169 14.85C7.22795 14.85 7.05469 15.0231 7.05469 15.2365C7.05469 15.45 7.22795 15.623 7.44169 15.623H7.83869C8.05242 15.623 8.22569 15.45 8.22569 15.2365C8.22569 15.0231 8.05242 14.85 7.83869 14.85H7.44169Z" fill="#FAFAFA"/>
  <path d="M6.58008 15.2356V15.2366C6.58008 15.6205 6.89124 15.9316 7.27508 15.9316H7.99108C8.37492 15.9316 8.68608 15.6205 8.68608 15.2366V15.2356C8.68608 14.8518 8.37492 14.5406 7.99108 14.5406H7.27508C6.89124 14.5406 6.58008 14.8518 6.58008 15.2356Z" fill="#FAFAFA"/>
  <path d="M16.8427 6.39106C16.8427 6.12762 16.6291 5.91406 16.3657 5.91406C16.1022 5.91406 15.8887 6.12762 15.8887 6.39106V6.88206C15.8887 7.1455 16.1022 7.35906 16.3657 7.35906C16.6291 7.35906 16.8427 7.1455 16.8427 6.88206V6.39106Z" fill="#FAFAFA"/>
  <path d="M16.7535 6.44559C16.7535 6.23186 16.5804 6.05859 16.367 6.05859C16.1535 6.05859 15.9805 6.23186 15.9805 6.44559V6.84259C15.9805 7.05633 16.1535 7.22959 16.367 7.22959C16.5804 7.22959 16.7535 7.05633 16.7535 6.84259V6.44559Z" fill="#FAFAFA"/>
  <path d="M17.0619 6.27898C17.0619 5.89515 16.7507 5.58398 16.3669 5.58398C15.983 5.58398 15.6719 5.89515 15.6719 6.27898V6.99498C15.6719 7.37882 15.983 7.68998 16.3669 7.68998C16.7507 7.68998 17.0619 7.37882 17.0619 6.99498V6.27898Z" fill="#FAFAFA"/>
  <path d="M16.8427 23.8618C16.8427 23.5983 16.6291 23.3848 16.3657 23.3848C16.1022 23.3848 15.8887 23.5983 15.8887 23.8618V24.3528C15.8887 24.6162 16.1022 24.8298 16.3657 24.8298C16.6291 24.8298 16.8427 24.6162 16.8427 24.3528V23.8618Z" fill="#FAFAFA"/>
  <path d="M16.7535 23.9163C16.7535 23.7026 16.5804 23.5293 16.367 23.5293C16.1535 23.5293 15.9805 23.7026 15.9805 23.9163V24.3133C15.9805 24.527 16.1535 24.7003 16.367 24.7003C16.5804 24.7003 16.7535 24.527 16.7535 24.3133V23.9163Z" fill="#FAFAFA"/>
  <path d="M17.0619 23.7497C17.0619 23.3658 16.7507 23.0547 16.3669 23.0547C15.983 23.0547 15.6719 23.3658 15.6719 23.7497V24.4657C15.6719 24.8495 15.983 25.1607 16.3669 25.1607C16.7507 25.1607 17.0619 24.8495 17.0619 24.4657V23.7497Z" fill="#FAFAFA"/>
  <path d="M22.556 8.87088C22.7299 8.67299 22.7105 8.3716 22.5126 8.1977C22.3147 8.02379 22.0133 8.04323 21.8394 8.24111L21.5153 8.60993C21.3414 8.80781 21.3608 9.1092 21.5587 9.28311C21.7566 9.45701 22.058 9.43757 22.2319 9.23969L22.556 8.87088Z" fill="#FAFAFA"/>
  <path d="M22.4541 8.85371C22.5952 8.69316 22.5796 8.44879 22.4192 8.30788C22.2589 8.16696 22.0145 8.18288 21.8734 8.34343L21.6114 8.64164C21.4703 8.80218 21.4859 9.04656 21.6462 9.18747C21.8066 9.32838 22.0509 9.31246 22.192 9.15192L22.4541 8.85371Z" fill="#FAFAFA"/>
  <path d="M22.7337 7.95163L22.733 7.95097C22.4447 7.69759 22.0055 7.72592 21.7522 8.01424L21.2795 8.55207C21.0261 8.8404 21.0545 9.27954 21.3428 9.53291L21.3435 9.53357C21.6319 9.78695 22.071 9.75863 22.3244 9.4703L22.797 8.93247C23.0504 8.64415 23.0221 8.20501 22.7337 7.95163Z" fill="#FAFAFA"/>
  <path d="M11.0716 22.0916C11.2455 21.8937 11.2261 21.5923 11.0282 21.4184C10.8303 21.2445 10.5289 21.2639 10.355 21.4618L10.0309 21.8306C9.85701 22.0285 9.87645 22.3299 10.0743 22.5038C10.2722 22.6777 10.5736 22.6583 10.7475 22.4604L11.0716 22.0916Z" fill="#FAFAFA"/>
  <path d="M10.9697 22.0744C11.1108 21.9139 11.0952 21.6695 10.9349 21.5286C10.7745 21.3877 10.5302 21.4036 10.3891 21.5641L10.127 21.8623C9.9859 22.0229 10.0015 22.2673 10.1618 22.4082C10.3222 22.5491 10.5665 22.5332 10.7076 22.3726L10.9697 22.0744Z" fill="#FAFAFA"/>
  <path d="M11.2494 21.1723L11.2486 21.1717C10.9603 20.9183 10.5212 20.9466 10.2678 21.2349L9.79513 21.7728C9.54175 22.0611 9.57008 22.5002 9.85841 22.7536L9.85916 22.7543C10.1475 23.0077 10.5866 22.9793 10.84 22.691L11.3126 22.1532C11.566 21.8648 11.5377 21.4257 11.2494 21.1723Z" fill="#FAFAFA"/>
  <path d="M9.42405 10.3138C9.62193 10.4877 9.92332 10.4683 10.0972 10.2704C10.2711 10.0725 10.2517 9.77113 10.0538 9.59723L9.685 9.2731C9.48711 9.0992 9.18572 9.11863 9.01181 9.31652C8.83791 9.5144 8.85735 9.81579 9.05523 9.9897L9.42405 10.3138Z" fill="#FAFAFA"/>
  <path d="M9.44316 10.2119C9.60371 10.353 9.84809 10.3374 9.989 10.177C10.1299 10.0167 10.114 9.77234 9.95345 9.63125L9.65524 9.36918C9.49469 9.22808 9.25031 9.24368 9.1094 9.40402C8.96849 9.56436 8.98441 9.80872 9.14496 9.94981L9.44316 10.2119Z" fill="#FAFAFA"/>
  <path d="M9.36506 10.5541C9.65339 10.8075 10.0925 10.7791 10.3459 10.4908C10.5993 10.2025 10.571 9.76335 10.2826 9.50997L9.7448 9.03732C9.45648 8.78394 9.01734 8.81227 8.76396 9.10059C8.51058 9.38892 8.53891 9.82806 8.82723 10.0814L9.36506 10.5541Z" fill="#FAFAFA"/>
  <path d="M23.0881 21.2513C23.286 21.4252 23.5874 21.4058 23.7613 21.2079C23.9352 21.01 23.9158 20.7086 23.7179 20.5347L23.3491 20.2106C23.1512 20.0367 22.8498 20.0561 22.6759 20.254C22.502 20.4519 22.5214 20.7533 22.7193 20.9272L23.0881 21.2513Z" fill="#FAFAFA"/>
  <path d="M23.1053 21.1494C23.2658 21.2905 23.5102 21.2749 23.6511 21.1145C23.792 20.9542 23.7761 20.7098 23.6156 20.5687L23.3173 20.3067C23.1568 20.1656 22.9124 20.1812 22.7715 20.3415C22.6306 20.5019 22.6465 20.7462 22.8071 20.8873L23.1053 21.1494Z" fill="#FAFAFA"/>
  <path d="M23.0272 21.4896C23.3155 21.743 23.7546 21.7147 24.008 21.4264C24.2614 21.138 24.2331 20.6989 23.9447 20.4455L23.4069 19.9729C23.1186 19.7195 22.6794 19.7478 22.4261 20.0361C22.1727 20.3245 22.201 20.7636 22.4893 21.017L23.0272 21.4896Z" fill="#FAFAFA"/>
</svg>
