<svg width="32" height="32" viewBox="0 0 32 32" fill="none" xmlns="http://www.w3.org/2000/svg">
<path d="M16 24C14.4177 24 12.871 23.5308 11.5554 22.6518C10.2398 21.7727 9.21443 20.5232 8.60893 19.0614C8.00343 17.5996 7.84505 15.9911 8.15373 14.4392C8.46241 12.8874 9.22431 11.4619 10.3431 10.3431C11.4619 9.22429 12.8874 8.4624 14.4393 8.15372C15.9911 7.84504 17.5996 8.00348 19.0614 8.60898C20.5233 9.21448 21.7727 10.2399 22.6518 11.5555C23.5308 12.871 24 14.4177 24 16C23.9976 18.121 23.154 20.1544 21.6542 21.6542C20.1544 23.154 18.121 23.9976 16 24ZM16 9.20999C14.6571 9.20979 13.3442 9.6078 12.2275 10.3537C11.1108 11.0997 10.2403 12.16 9.72624 13.4007C9.21214 14.6413 9.07748 16.0065 9.33928 17.3237C9.60108 18.6409 10.2475 19.8508 11.197 20.8006C12.1465 21.7503 13.3562 22.3971 14.6733 22.6593C15.9904 22.9215 17.3557 22.7873 18.5965 22.2735C19.8373 21.7598 20.8979 20.8897 21.6442 19.7732C22.3904 18.6567 22.7888 17.3439 22.789 16.001C22.7866 14.201 22.0706 12.4753 20.798 11.2024C19.5254 9.92938 17.8 9.2129 16 9.20999Z" fill="#FAFAFA"/>
<path d="M23.0013 14.5828H9.00134C8.84135 14.5763 8.69003 14.5083 8.5791 14.3928C8.46817 14.2773 8.40625 14.1234 8.40625 13.9633C8.40625 13.8031 8.46817 13.6492 8.5791 13.5338C8.69003 13.4183 8.84135 13.3502 9.00134 13.3438H23.0013C23.1613 13.3502 23.3127 13.4183 23.4236 13.5338C23.5345 13.6492 23.5964 13.8031 23.5964 13.9633C23.5964 14.1234 23.5345 14.2773 23.4236 14.3928C23.3127 14.5083 23.1613 14.5763 23.0013 14.5828Z" fill="#FAFAFA"/>
<path d="M22.8639 19.197H9.20789C9.04345 19.197 8.88574 19.1317 8.76947 19.0154C8.6532 18.8992 8.58789 18.7415 8.58789 18.577C8.58789 18.4126 8.6532 18.2549 8.76947 18.1386C8.88574 18.0223 9.04345 17.957 9.20789 17.957H22.8639C23.0283 17.957 23.186 18.0223 23.3023 18.1386C23.4186 18.2549 23.4839 18.4126 23.4839 18.577C23.4839 18.7415 23.4186 18.8992 23.3023 19.0154C23.186 19.1317 23.0283 19.197 22.8639 19.197Z" fill="#FAFAFA"/>
<path d="M15.9121 23.9074C13.9121 23.9074 12.8711 19.9234 12.8711 15.9884C12.8711 12.0534 13.9151 8.06836 15.9121 8.06836C17.9091 8.06836 18.9531 12.0524 18.9531 15.9884C18.9531 19.9244 17.9121 23.9074 15.9121 23.9074ZM15.9121 9.27936C15.3011 9.27936 14.1121 11.6474 14.1121 15.9884C14.1121 20.3294 15.3031 22.6974 15.9121 22.6974C16.5481 22.6974 17.7121 20.1504 17.7121 15.9884C17.7121 11.8264 16.5531 9.27936 15.9121 9.27936Z" fill="#FAFAFA"/>
</svg>
