<svg width="32" height="32" viewBox="0 0 32 32" fill="none" xmlns="http://www.w3.org/2000/svg">
<path d="M16.5027 15.512L15.7307 8L15.1397 8.06401C13.2094 8.27106 11.4205 9.17363 10.107 10.6032C8.79348 12.0328 8.04522 13.8916 8.00198 15.8324C7.95875 17.7733 8.62345 19.6636 9.87198 21.1502C11.1205 22.6369 12.8675 23.6182 14.7867 23.911C15.1886 23.9703 15.5943 24 16.0006 24C17.9182 24.0004 19.7721 23.312 21.2246 22.0602C22.6772 20.8084 23.6318 19.0766 23.9146 17.18L24.0006 16.594L16.5027 15.512ZM20.1026 21.444C19.2856 22.0627 18.3395 22.4891 17.3347 22.6914C16.33 22.8937 15.2926 22.8668 14.2998 22.6125C13.3069 22.3583 12.3842 21.8833 11.6004 21.223C10.8165 20.5627 10.1918 19.7341 9.77267 18.7988C9.35352 17.8635 9.15078 16.8458 9.17954 15.8213C9.20829 14.7968 9.4678 13.792 9.93875 12.8818C10.4097 11.9715 11.0799 11.1792 11.8996 10.5639C12.7192 9.94861 13.6671 9.52615 14.6726 9.328L15.4146 16.549L22.6377 17.593C22.2713 19.1333 21.3759 20.4962 20.1076 21.444H20.1026Z" fill="#FAFAFA"/>
<path d="M16.8215 9.24952C18.3422 9.42677 19.7582 10.1137 20.8387 11.1985C21.9191 12.2833 22.6004 13.702 22.7715 15.2235C22.7881 15.3676 22.8571 15.5006 22.9653 15.5971C23.0735 15.6937 23.2135 15.7473 23.3585 15.7475C23.3805 15.7475 23.4035 15.7475 23.4275 15.7475C23.5832 15.7295 23.7253 15.6503 23.8226 15.5275C23.92 15.4047 23.9645 15.2482 23.9465 15.0925C23.7456 13.3066 22.9459 11.6413 21.6777 10.3678C20.4096 9.09438 18.7476 8.28783 16.9625 8.07952C16.8071 8.06303 16.6514 8.10782 16.5285 8.20437C16.4056 8.30092 16.3252 8.44162 16.3045 8.59652C16.287 8.75157 16.3316 8.90724 16.4284 9.02957C16.5253 9.1519 16.6665 9.23097 16.8215 9.24952V9.24952Z" fill="#FAFAFA"/>
</svg>
