<svg width="48" height="48" viewBox="0 0 48 48" fill="none" xmlns="http://www.w3.org/2000/svg">
<path fill-rule="evenodd" clip-rule="evenodd" d="M24 16H30.3846C30.9369 16 31.3846 16.4477 31.3846 17V23.3846C31.3846 23.9369 30.9369 24.3846 30.3846 24.3846H27.7694V25.3846H30.3846C31.4892 25.3846 32.3846 24.4892 32.3846 23.3846V17C32.3846 15.8954 31.4892 15 30.3846 15H24C22.8954 15 22 15.8954 22 17V19.6154H23V17C23 16.4477 23.4477 16 24 16Z" fill="white"/>
<path d="M27.7694 24.3846V23.8846H27.2694V24.3846H27.7694ZM27.7694 25.3846H27.2694V25.8846H27.7694V25.3846ZM22 19.6154H21.5V20.1154H22V19.6154ZM23 19.6154V20.1154H23.5V19.6154H23ZM30.3846 15.5H24V16.5H30.3846V15.5ZM31.8846 17C31.8846 16.1716 31.213 15.5 30.3846 15.5V16.5C30.6608 16.5 30.8846 16.7239 30.8846 17H31.8846ZM31.8846 23.3846V17H30.8846V23.3846H31.8846ZM30.3846 24.8846C31.213 24.8846 31.8846 24.213 31.8846 23.3846H30.8846C30.8846 23.6608 30.6608 23.8846 30.3846 23.8846V24.8846ZM27.7694 24.8846H30.3846V23.8846H27.7694V24.8846ZM27.2694 24.3846V25.3846H28.2694V24.3846H27.2694ZM27.7694 25.8846H30.3846V24.8846H27.7694V25.8846ZM30.3846 25.8846C31.7653 25.8846 32.8846 24.7653 32.8846 23.3846H31.8846C31.8846 24.213 31.213 24.8846 30.3846 24.8846V25.8846ZM32.8846 23.3846V17H31.8846V23.3846H32.8846ZM32.8846 17C32.8846 15.6193 31.7653 14.5 30.3846 14.5V15.5C31.213 15.5 31.8846 16.1716 31.8846 17H32.8846ZM30.3846 14.5H24V15.5H30.3846V14.5ZM24 14.5C22.6193 14.5 21.5 15.6193 21.5 17H22.5C22.5 16.1716 23.1716 15.5 24 15.5V14.5ZM21.5 17V19.6154H22.5V17H21.5ZM22 20.1154H23V19.1154H22V20.1154ZM22.5 17V19.6154H23.5V17H22.5ZM24 15.5C23.1716 15.5 22.5 16.1716 22.5 17H23.5C23.5 16.7239 23.7239 16.5 24 16.5V15.5Z" fill="white"/>
<rect x="15" y="20" width="12" height="12" rx="2" stroke="white" stroke-width="2"/>
</svg>
