<svg width="33" height="32" viewBox="0 0 33 32" fill="none" xmlns="http://www.w3.org/2000/svg">
<path d="M20.752 24.0001C20.752 24.4143 21.0878 24.7501 21.502 24.75C21.9163 24.7499 22.252 24.4141 22.252 23.9999L20.752 24.0001ZM22.0303 7.46776C21.7373 7.1749 21.2625 7.17496 20.9696 7.46789L16.1972 12.2414C15.9044 12.5344 15.9044 13.0092 16.1973 13.3021C16.4903 13.595 16.9651 13.5949 17.258 13.302L21.5001 9.05881L25.7433 13.3009C26.0362 13.5938 26.5111 13.5937 26.8039 13.3008C27.0968 13.0079 27.0967 12.533 26.8038 12.2401L22.0303 7.46776ZM22.252 23.9999L22.25 7.99806L20.75 7.99825L20.752 24.0001L22.252 23.9999Z" fill="#83868F"/>
<path d="M12.248 7.99991C12.248 7.58569 11.9122 7.24995 11.498 7.25C11.0837 7.25005 10.748 7.58588 10.748 8.00009L12.248 7.99991ZM10.9697 24.5322C11.2627 24.8251 11.7375 24.825 12.0304 24.5321L16.8028 19.7586C17.0956 19.4656 17.0956 18.9908 16.8027 18.6979C16.5097 18.405 16.0349 18.4051 15.742 18.698L11.4999 22.9412L7.25671 18.6991C6.96378 18.4062 6.48891 18.4063 6.19605 18.6992C5.90319 18.9921 5.90325 19.467 6.19618 19.7599L10.9697 24.5322ZM10.748 8.00009L10.75 24.0019L12.25 24.0018L12.248 7.99991L10.748 8.00009Z" fill="#FF6200"/>
</svg>
