<svg width="32" height="32" viewBox="0 0 32 32" fill="none" xmlns="http://www.w3.org/2000/svg">
<path d="M20.252 24.0001C20.252 24.4143 20.5878 24.7501 21.002 24.75C21.4163 24.7499 21.752 24.4141 21.752 23.9999L20.252 24.0001ZM21.5303 7.46776C21.2373 7.1749 20.7625 7.17496 20.4696 7.46789L15.6972 12.2414C15.4044 12.5344 15.4044 13.0092 15.6973 13.3021C15.9903 13.595 16.4651 13.5949 16.758 13.302L21.0001 9.05881L25.2433 13.3009C25.5362 13.5938 26.0111 13.5937 26.3039 13.3008C26.5968 13.0079 26.5967 12.533 26.3038 12.2401L21.5303 7.46776ZM21.752 23.9999L21.75 7.99806L20.25 7.99825L20.252 24.0001L21.752 23.9999Z" fill="#FF6200"/>
<path d="M11.748 7.99991C11.748 7.58569 11.4122 7.24995 10.998 7.25C10.5837 7.25005 10.248 7.58588 10.248 8.00009L11.748 7.99991ZM10.4697 24.5322C10.7627 24.8251 11.2375 24.825 11.5304 24.5321L16.3028 19.7586C16.5956 19.4656 16.5956 18.9908 16.3027 18.6979C16.0097 18.405 15.5349 18.4051 15.242 18.698L10.9999 22.9412L6.75671 18.6991C6.46378 18.4062 5.98891 18.4063 5.69605 18.6992C5.40319 18.9921 5.40325 19.467 5.69618 19.7599L10.4697 24.5322ZM10.248 8.00009L10.25 24.0019L11.75 24.0018L11.748 7.99991L10.248 8.00009Z" fill="#83868F"/>
</svg>
