<svg width="32" height="32" viewBox="0 0 32 32" fill="none" xmlns="http://www.w3.org/2000/svg">
<path d="M16.2522 10.9122C16.6613 10.9364 17.0635 10.798 17.3712 10.5272C17.5095 10.3851 17.6166 10.2155 17.6855 10.0295C17.7544 9.84354 17.7836 9.64517 17.7712 9.4472C17.7823 9.25207 17.7525 9.05676 17.6836 8.87386C17.6147 8.69095 17.5083 8.5245 17.3712 8.38521C17.052 8.1356 16.6584 8 16.2532 8C15.848 8 15.4544 8.1356 15.1352 8.38521C14.9968 8.52756 14.8898 8.69726 14.8209 8.88342C14.752 9.06958 14.7228 9.26809 14.7352 9.4662C14.7242 9.66117 14.7541 9.85629 14.823 10.039C14.8918 10.2217 14.9982 10.388 15.1352 10.5272C15.4423 10.7976 15.8437 10.9359 16.2522 10.9122Z" fill="#FAFAFA"/>
<path d="M14 12.2461V13.3651H14.976V22.5011H17.531V12.2461H14Z" fill="#FAFAFA"/>
</svg>
