<svg width="32" height="32" viewBox="0 0 32 32" fill="none" xmlns="http://www.w3.org/2000/svg">
  <path d="M13.7065 7.49414H8.70753C7.98238 7.49414 7.39453 8.08218 7.39453 8.80757V13.8082C7.39453 14.5336 7.98238 15.1216 8.70753 15.1216H13.7065C14.4317 15.1216 15.0195 14.5336 15.0195 13.8082V8.80757C15.0195 8.08218 14.4317 7.49414 13.7065 7.49414Z" fill="#FAFAFA"/>
  <path d="M23.188 15.6278H18.188C17.7074 15.627 17.2468 15.4357 16.9069 15.0957C16.5671 14.7558 16.3758 14.295 16.375 13.8142V8.81259C16.3758 8.33193 16.5671 7.87119 16.907 7.53141C17.2468 7.19162 17.7075 7.00053 18.188 7H23.188C23.6684 7.00053 24.129 7.19166 24.4687 7.53147C24.8084 7.87128 24.9995 8.33202 25 8.81259V13.8142C24.9995 14.2949 24.8084 14.7557 24.4688 15.0957C24.1291 15.4357 23.6685 15.627 23.188 15.6278V15.6278ZM18.188 8.00033C17.9725 8.00033 17.7659 8.08587 17.6135 8.23817C17.461 8.39047 17.3753 8.59707 17.375 8.81259V13.8142C17.3753 14.0298 17.461 14.2365 17.6134 14.389C17.7658 14.5414 17.9724 14.6272 18.188 14.6275H23.188C23.4034 14.6272 23.61 14.5414 23.7623 14.3889C23.9145 14.2364 24 14.0297 24 13.8142V8.81259C23.9997 8.59724 23.9141 8.39079 23.7619 8.23852C23.6097 8.08624 23.4033 8.00059 23.188 8.00033H18.188Z" fill="#FAFAFA"/>
  <path d="M23.188 24.9989H18.188C17.7074 24.9981 17.2468 24.8068 16.9069 24.4668C16.5671 24.1269 16.3758 23.6661 16.375 23.1853V18.1837C16.3758 17.703 16.5671 17.2423 16.907 16.9025C17.2468 16.5627 17.7075 16.3716 18.188 16.3711H23.188C23.6684 16.3716 24.129 16.5628 24.4687 16.9026C24.8084 17.2424 24.9995 17.7031 25 18.1837V23.1853C24.9995 23.666 24.8084 24.1268 24.4688 24.4668C24.1291 24.8067 23.6685 24.9981 23.188 24.9989V24.9989ZM18.188 17.3714C17.9725 17.3714 17.7659 17.457 17.6135 17.6093C17.461 17.7616 17.3753 17.9682 17.375 18.1837V23.1853C17.3753 23.4009 17.461 23.6076 17.6134 23.7601C17.7658 23.9125 17.9724 23.9983 18.188 23.9986H23.188C23.4034 23.9983 23.61 23.9125 23.7623 23.76C23.9145 23.6075 24 23.4008 24 23.1853V18.1837C23.9997 17.9683 23.9141 17.7619 23.7619 17.6096C23.6097 17.4573 23.4033 17.3717 23.188 17.3714H18.188Z" fill="#FAFAFA"/>
  <path d="M13.812 24.9989H8.81195C8.33145 24.9981 7.87092 24.8067 7.53125 24.4668C7.19158 24.1268 7.00053 23.666 7 23.1853V18.1837C7.00053 17.7031 7.19161 17.2424 7.53131 16.9026C7.87101 16.5628 8.33154 16.3716 8.81195 16.3711H13.812C14.2925 16.3716 14.7532 16.5627 15.093 16.9025C15.4329 17.2423 15.6242 17.703 15.625 18.1837V23.1853C15.6242 23.6661 15.4329 24.1269 15.0931 24.4668C14.7532 24.8068 14.2925 24.9981 13.812 24.9989V24.9989ZM8.81195 17.3714C8.59668 17.3717 8.39032 17.4573 8.2381 17.6096C8.08588 17.7619 8.00026 17.9683 8 18.1837V23.1853C8 23.4008 8.08548 23.6075 8.23773 23.76C8.38998 23.9125 8.5965 23.9983 8.81195 23.9986H13.812C14.0275 23.9983 14.2341 23.9125 14.3865 23.7601C14.5389 23.6076 14.6247 23.4009 14.625 23.1853V18.1837C14.6247 17.9682 14.5389 17.7616 14.3865 17.6093C14.234 17.457 14.0274 17.3714 13.812 17.3714H8.81195Z" fill="#FAFAFA"/>
</svg>
