<svg width="32" height="32" viewBox="0 0 32 32" fill="none" xmlns="http://www.w3.org/2000/svg">
  <path d="M18.0103 7.8111C17.7667 7.68842 17.4938 7.63607 17.2221 7.65992C16.9504 7.68376 16.6908 7.78287 16.4723 7.94611L11.3573 11.7551H8.70129C8.12549 11.7559 7.57348 11.985 7.16632 12.3921C6.75916 12.7993 6.53009 13.3513 6.5293 13.9271V17.4801C6.53009 18.0559 6.75916 18.6079 7.16632 19.0151C7.57348 19.4222 8.12549 19.6513 8.70129 19.6521H11.5323L16.4663 23.3621C16.6848 23.5261 16.9446 23.626 17.2167 23.6506C17.4887 23.6752 17.7623 23.6236 18.0067 23.5015C18.2511 23.3794 18.4566 23.1917 18.6003 22.9594C18.744 22.7271 18.8202 22.4593 18.8203 22.1861V9.12711C18.8213 8.85406 18.746 8.58616 18.6029 8.35363C18.4598 8.1211 18.2545 7.93318 18.0103 7.8111ZM17.4483 22.1821C17.4495 22.2007 17.4449 22.2192 17.4353 22.2351C17.4256 22.251 17.4113 22.2636 17.3943 22.2711C17.3786 22.2798 17.3606 22.2836 17.3427 22.2818C17.3248 22.28 17.3079 22.2728 17.2943 22.2611L11.9943 18.2771H10.3673V16.0721C10.3673 15.89 10.2949 15.7154 10.1662 15.5867C10.0375 15.4579 9.86286 15.3856 9.68079 15.3856C9.49871 15.3856 9.32409 15.4579 9.19534 15.5867C9.0666 15.7154 8.99429 15.89 8.99429 16.0721V18.2801H8.70529C8.49312 18.2801 8.28962 18.1958 8.13959 18.0458C7.98956 17.8958 7.90527 17.6923 7.90527 17.4801V13.9311C7.90527 13.7189 7.98956 13.5155 8.13959 13.3654C8.28962 13.2154 8.49312 13.1311 8.70529 13.1311H10.9243V15.4621C10.9243 15.6442 10.9966 15.8188 11.1254 15.9475C11.2541 16.0763 11.4287 16.1486 11.6108 16.1486C11.7929 16.1486 11.9675 16.0763 12.0962 15.9475C12.225 15.8188 12.2973 15.6442 12.2973 15.4621V12.7731L17.2973 9.0501C17.3109 9.03831 17.3279 9.03112 17.3458 9.0295C17.3638 9.02789 17.3818 9.03193 17.3973 9.0411C17.4142 9.04845 17.4285 9.06085 17.4382 9.07659C17.4478 9.09233 17.4524 9.11067 17.4513 9.12911L17.4483 22.1821Z" fill="#FAFAFA"/>
  <path d="M24.4972 21.3797C24.3683 21.38 24.2421 21.3435 24.1332 21.2747C23.9789 21.1781 23.8693 21.0242 23.8285 20.8468C23.7876 20.6694 23.8188 20.4831 23.9152 20.3287C24.7805 18.9438 25.2104 17.3311 25.1495 15.6992C25.0885 14.0673 24.5394 12.4912 23.5732 11.1747C23.5161 11.1024 23.4743 11.0193 23.45 10.9304C23.4258 10.8415 23.4196 10.7487 23.432 10.6574C23.4443 10.5661 23.4749 10.4782 23.5219 10.399C23.5689 10.3198 23.6314 10.2508 23.7055 10.1962C23.7797 10.1416 23.8642 10.1025 23.9538 10.0812C24.0434 10.0598 24.1364 10.0568 24.2272 10.0721C24.3181 10.0874 24.4049 10.1209 24.4825 10.1705C24.5602 10.2201 24.627 10.2848 24.6792 10.3607C25.8088 11.8995 26.4508 13.7417 26.5221 15.6493C26.5934 17.5568 26.0908 19.4419 25.0792 21.0607C25.017 21.1587 24.931 21.2394 24.8293 21.2952C24.7275 21.3509 24.6132 21.38 24.4972 21.3797Z" fill="#FAFAFA"/>
  <path d="M21.7329 20.2081C21.6052 20.2083 21.4799 20.1728 21.3712 20.1058C21.2625 20.0387 21.1746 19.9426 21.1175 19.8283C21.0603 19.7141 21.0362 19.5861 21.0477 19.4589C21.0593 19.3317 21.1061 19.2102 21.1829 19.1081C21.8499 18.2129 22.2114 17.127 22.2143 16.0107C22.2172 14.8944 21.8612 13.8067 21.1989 12.9081C21.1414 12.8358 21.099 12.7527 21.0743 12.6637C21.0496 12.5747 21.043 12.4816 21.0551 12.3901C21.0672 12.2985 21.0977 12.2103 21.1446 12.1307C21.1916 12.0512 21.2541 11.9819 21.3284 11.9271C21.4028 11.8723 21.4874 11.833 21.5773 11.8116C21.6672 11.7902 21.7604 11.7872 21.8515 11.8027C21.9425 11.8182 22.0295 11.8519 22.1073 11.9018C22.185 11.9517 22.2519 12.0168 22.3039 12.0931C23.1401 13.2289 23.5894 14.6032 23.5856 16.0135C23.5818 17.4239 23.1252 18.7958 22.2829 19.9271C22.2196 20.0136 22.1368 20.0841 22.0413 20.1329C21.9458 20.1817 21.8402 20.2074 21.7329 20.2081Z" fill="#FAFAFA"/>
</svg>
