<svg width="32" height="32" viewBox="0 0 32 32" fill="none" xmlns="http://www.w3.org/2000/svg">
<g clip-path="url(#clip0_3199_44654)">
<g clip-path="url(#clip1_3199_44654)">
<path d="M16.9397 16.0002L21.7997 11.1402C21.9089 11.0126 21.9659 10.8486 21.9595 10.6808C21.953 10.513 21.8834 10.3539 21.7647 10.2351C21.646 10.1164 21.4868 10.0468 21.319 10.0404C21.1512 10.0339 20.9872 10.091 20.8597 10.2002L15.9997 15.0602L11.1397 10.1935C11.0121 10.0843 10.8481 10.0272 10.6803 10.0337C10.5125 10.0402 10.3533 10.1097 10.2346 10.2285C10.1159 10.3472 10.0463 10.5064 10.0398 10.6741C10.0334 10.8419 10.0904 11.006 10.1997 11.1335L15.0597 16.0002L10.193 20.8602C10.1232 20.9199 10.0665 20.9935 10.0265 21.0762C9.98649 21.1589 9.964 21.249 9.96046 21.3408C9.95691 21.4326 9.97238 21.5242 10.0059 21.6097C10.0394 21.6953 10.0903 21.773 10.1552 21.8379C10.2202 21.9029 10.2979 21.9538 10.3834 21.9873C10.469 22.0208 10.5605 22.0363 10.6524 22.0327C10.7442 22.0292 10.8343 22.0067 10.917 21.9667C10.9997 21.9266 11.0732 21.87 11.133 21.8002L15.9997 16.9402L20.8597 21.8002C20.9872 21.9094 21.1512 21.9665 21.319 21.96C21.4868 21.9535 21.646 21.8839 21.7647 21.7652C21.8834 21.6465 21.953 21.4873 21.9595 21.3195C21.9659 21.1518 21.9089 20.9877 21.7997 20.8602L16.9397 16.0002Z" fill="#17234D" stroke="#FDFDFD"/>
<path d="M16.9397 16.0002L21.7997 11.1402C21.9089 11.0126 21.9659 10.8486 21.9595 10.6808C21.953 10.513 21.8834 10.3539 21.7647 10.2351C21.646 10.1164 21.4868 10.0468 21.319 10.0404C21.1512 10.0339 20.9872 10.091 20.8597 10.2002L15.9997 15.0602L11.1397 10.1935C11.0121 10.0843 10.8481 10.0272 10.6803 10.0337C10.5125 10.0402 10.3533 10.1097 10.2346 10.2285C10.1159 10.3472 10.0463 10.5064 10.0398 10.6741C10.0334 10.8419 10.0904 11.006 10.1997 11.1335L15.0597 16.0002L10.193 20.8602C10.1232 20.9199 10.0665 20.9935 10.0265 21.0762C9.98649 21.1589 9.964 21.249 9.96046 21.3408C9.95691 21.4326 9.97238 21.5242 10.0059 21.6097C10.0394 21.6953 10.0903 21.773 10.1552 21.8379C10.2202 21.9029 10.2979 21.9538 10.3834 21.9873C10.469 22.0208 10.5605 22.0363 10.6524 22.0327C10.7442 22.0292 10.8343 22.0067 10.917 21.9667C10.9997 21.9266 11.0732 21.87 11.133 21.8002L15.9997 16.9402L20.8597 21.8002C20.9872 21.9094 21.1512 21.9665 21.319 21.96C21.4868 21.9535 21.646 21.8839 21.7647 21.7652C21.8834 21.6465 21.953 21.4873 21.9595 21.3195C21.9659 21.1518 21.9089 20.9877 21.7997 20.8602L16.9397 16.0002Z" fill="#17234D" stroke="#FDFDFD"/>
</g>
</g>
<defs>
<clipPath id="clip0_3199_44654">
<rect width="32" height="32" rx="8" fill="white"/>
</clipPath>
<clipPath id="clip1_3199_44654">
<rect width="24" height="24" fill="white" transform="translate(4 4)"/>
</clipPath>
</defs>
</svg>
