<svg width="14" height="14" viewBox="0 0 14 14" fill="none" xmlns="http://www.w3.org/2000/svg">
<path d="M7.93966 7.00017L12.7997 2.14017C12.9089 2.01264 12.9659 1.84859 12.9595 1.68081C12.953 1.51302 12.8834 1.35386 12.7647 1.23513C12.646 1.1164 12.4868 1.04685 12.319 1.04037C12.1512 1.03389 11.9872 1.09096 11.8597 1.20017L6.99966 6.06017L2.13966 1.19351C2.01212 1.08429 1.84807 1.02722 1.68029 1.0337C1.5125 1.04018 1.35334 1.10974 1.23461 1.22847C1.11589 1.3472 1.04633 1.50635 1.03985 1.67414C1.03337 1.84192 1.09044 2.00597 1.19966 2.13351L6.05966 7.00017L1.19299 11.8602C1.1232 11.9199 1.06652 11.9935 1.02651 12.0762C0.986491 12.1589 0.964004 12.249 0.960458 12.3408C0.956911 12.4326 0.972382 12.5242 1.0059 12.6097C1.03941 12.6953 1.09025 12.773 1.15522 12.8379C1.22019 12.9029 1.29789 12.9538 1.38344 12.9873C1.46899 13.0208 1.56055 13.0363 1.65236 13.0327C1.74417 13.0292 1.83426 13.0067 1.91697 12.9667C1.99968 12.9266 2.07323 12.87 2.13299 12.8002L6.99966 7.94018L11.8597 12.8002C11.9872 12.9094 12.1512 12.9665 12.319 12.96C12.4868 12.9535 12.646 12.8839 12.7647 12.7652C12.8834 12.6465 12.953 12.4873 12.9595 12.3195C12.9659 12.1518 12.9089 11.9877 12.7997 11.8602L7.93966 7.00017Z" fill="#17234D" stroke="#17234D"/>
</svg>
