<svg width="48" height="48" viewBox="0 0 48 48" fill="none" xmlns="http://www.w3.org/2000/svg">
<path d="M33.1324 18.7501L30.228 13.3262L24.5357 11.4288L24.5226 11.4693L15.6757 13.997C15.0499 14.1779 14.4996 14.5568 14.1073 15.0768C13.715 15.5969 13.5018 16.2301 13.4998 16.8815V24.7501H16.4998V16.8816L23.3998 14.9102L20.3518 24.2508L20.3372 24.2456L17.575 31.9799C17.4413 32.3481 17.1697 32.6498 16.8175 32.8213C16.4654 32.9928 16.0603 33.0205 15.6881 32.8987L9.47414 30.8271L8.52539 33.6731L14.7393 35.7444C15.8558 36.1164 17.0735 36.0363 18.1316 35.5213C19.1897 35.0062 20.0039 34.0972 20.3998 32.989L22.6715 26.6281L24.2815 27.1531L28.8096 31.6812C28.9496 31.8202 29.0605 31.9857 29.1361 32.1679C29.2117 32.3501 29.2503 32.5455 29.2498 32.7428V42.7501H32.2498V32.7428C32.2513 32.1516 32.1357 31.5659 31.9094 31.0197C31.6832 30.4735 31.3509 29.9776 30.9317 29.5607L26.4069 25.036L28.9178 17.3412L30.7243 20.5928C30.9192 20.9435 31.2043 21.2357 31.5501 21.4391C31.8959 21.6426 32.2898 21.75 32.691 21.7501H40.4998V18.7501H33.1324ZM26.8899 10.2851C27.4792 10.7775 28.2187 11.0543 28.9865 11.0696C29.7542 11.085 30.5043 10.8381 31.1128 10.3697C31.7213 9.90122 32.1518 9.23928 32.3334 8.49312C32.5149 7.74697 32.4365 6.96122 32.1112 6.26561C31.7859 5.57 31.2331 5.00612 30.5441 4.66708C29.8551 4.32803 29.0711 4.2341 28.3215 4.40078C27.5718 4.56746 26.9015 4.98479 26.4211 5.58387C25.9406 6.18294 25.6789 6.92794 25.679 7.69586C25.6781 8.18992 25.7862 8.6781 25.9955 9.12564C26.2048 9.57318 26.5102 9.96908 26.8899 10.2851Z" fill="#FF8A00"/>
</svg>
