<svg width="49" height="49" viewBox="0 0 49 49" fill="none" xmlns="http://www.w3.org/2000/svg">
<path d="M33.8736 18.8771L30.9692 13.4532L25.2769 11.5558L25.2638 11.5963L16.4169 14.1239C15.7911 14.3048 15.2408 14.6837 14.8485 15.2038C14.4562 15.7238 14.243 16.357 14.241 17.0084V24.8771H17.241V17.0085L24.141 15.0372L21.093 24.3778L21.0784 24.3725L18.3162 32.1069C18.1825 32.475 17.9109 32.7768 17.5587 32.9483C17.2066 33.1197 16.8015 33.1475 16.4293 33.0256L10.2154 30.954L9.2666 33.8001L15.4805 35.8713C16.597 36.2434 17.8147 36.1633 18.8728 35.6482C19.9309 35.1332 20.7451 34.2241 21.141 33.1159L23.4127 26.7551L25.0227 27.2801L29.5508 31.8082C29.6908 31.9472 29.8017 32.1126 29.8773 32.2948C29.9529 32.4771 29.9915 32.6725 29.991 32.8697V42.8771H32.991V32.8697C32.9926 32.2785 32.8769 31.6929 32.6506 31.1467C32.4244 30.6005 32.0921 30.1046 31.6729 29.6877L27.1481 25.1629L29.659 17.4682L31.4655 20.7197C31.6604 21.0704 31.9455 21.3626 32.2913 21.5661C32.6371 21.7696 33.031 21.8769 33.4323 21.8771H41.241V18.8771H33.8736ZM27.6311 10.4121C28.2204 10.9045 28.9599 11.1812 29.7277 11.1966C30.4955 11.212 31.2455 10.965 31.854 10.4966C32.4625 10.0282 32.893 9.36623 33.0746 8.62008C33.2561 7.87392 33.1777 7.08818 32.8524 6.39257C32.5271 5.69695 31.9743 5.13308 31.2853 4.79403C30.5963 4.45499 29.8123 4.36105 29.0627 4.52773C28.3131 4.69441 27.6427 5.11174 27.1623 5.71082C26.6819 6.3099 26.4201 7.0549 26.4202 7.82281C26.4193 8.31687 26.5274 8.80505 26.7367 9.25259C26.946 9.70013 27.2514 10.096 27.6311 10.4121Z" fill="#FF6200"/>
</svg>
