<svg width="48" height="48" viewBox="0 0 48 48" fill="none" xmlns="http://www.w3.org/2000/svg">
<path d="M29.0551 10.8915C30.8201 10.8915 32.2509 9.46071 32.2509 7.69575C32.2509 5.93079 30.8201 4.5 29.0551 4.5C27.2902 4.5 25.8594 5.93079 25.8594 7.69575C25.8594 9.46071 27.2902 10.8915 29.0551 10.8915Z" fill="#FF8A00"/>
<path d="M30.1878 13.4487L24.5079 11.5137L17.2315 14.1599C16.798 14.3185 16.4236 14.6062 16.1588 14.9843C15.8939 15.3623 15.7513 15.8125 15.7503 16.2741V21.7491H18.7503V16.7998L23.3263 15.1358L14.8711 41.2491H18.0223L22.7175 26.6418L23.4554 26.8826L27.0003 33.3815V41.2491H30.0003V33.1904C30 32.8139 29.9055 32.4435 29.7255 32.1129L26.2043 25.6572L28.9182 17.3401L30.7248 20.5918C30.9197 20.9424 31.2048 21.2347 31.5506 21.4381C31.8964 21.6416 32.2903 21.749 32.6916 21.7491H37.5003V18.7491H33.1328L30.1878 13.4487Z" fill="#FF8A00"/>
</svg>
