<svg width="49" height="49" viewBox="0 0 49 49" fill="none" xmlns="http://www.w3.org/2000/svg">
<path d="M29.7973 11.0185C31.5623 11.0185 32.9931 9.58767 32.9931 7.8227C32.9931 6.05774 31.5623 4.62695 29.7973 4.62695C28.0323 4.62695 26.6016 6.05774 26.6016 7.8227C26.6016 9.58767 28.0323 11.0185 29.7973 11.0185Z" fill="#FF6200"/>
<path d="M30.93 13.5756L25.2501 11.6406L17.9737 14.2868C17.5402 14.4454 17.1658 14.7332 16.901 15.1112C16.6361 15.4893 16.4935 15.9395 16.4925 16.4011V21.8761H19.4925V16.9267L24.0685 15.2627L15.6133 41.3761H18.7645L23.4597 26.7688L24.1976 27.0095L27.7425 33.5085V41.3761H30.7425V33.3173C30.7422 32.9409 30.6477 32.5705 30.4677 32.2398L26.9464 25.7841L29.6604 17.4671L31.467 20.7187C31.6619 21.0694 31.947 21.3616 32.2928 21.5651C32.6386 21.7686 33.0325 21.8759 33.4338 21.8761H38.2425V18.8761H33.875L30.93 13.5756Z" fill="#FF6200"/>
</svg>
